<?xml version="1.0"?><svg width="640" height="480" xmlns="http://www.w3.org/2000/svg">
 <title>Boxer Silhouette</title>
 <g>
  <title>Layer 1</title>
  <switch>
   <g>
    <g id="Layer_1">
     <g>
      <path d="m102.133003,319.307007c25.388992,-7.520996 34.926003,-51.71698 44.329994,-72.80899c1.746994,-8.061005 2.417999,-30.763 9.403,-43.526001c4.835999,-10.881012 11.283997,-9.132004 14.105011,-19.072998c2.284988,-7.255997 10.477982,-16.389008 15.181,-20.285004c-2.822006,-7.388 -11.016006,-15.044006 -9.001007,-24.046005c0.13501,-1.209 1.477997,-2.955002 2.553009,-2.819992c8.192993,-0.53801 15.985001,12.895004 22.432983,19.748001c20.553009,-1.074997 42.718002,-5.240005 63.540985,-1.209c25.120026,0.804993 63.542023,-15.718018 87.317017,-21.225006c9.673004,-13.972 47.957001,-57.227005 55.481018,-61.795006c0,0.135002 -7.927002,-19.881996 20.552979,-15.313995c4.703003,2.688 8.598022,-11.687 20.554016,1.612999c8.328003,-1.880001 18.134979,-4.165001 24.181,0.805c2.820007,2.688 4.43399,9.539001 7.389008,16.656998c10.343994,8.462997 -2.553009,8.195999 5.774994,15.719002c4.703003,0 7.925995,2.551003 11.418976,6.582001c1.210022,2.285004 -2.685974,3.762001 -2.417999,6.315002c3.628021,9.268997 7.524017,10.344002 2.417999,16.656998c-3.357971,4.297997 -16.521973,16.389008 -26.731995,8.731003c-4.43399,0.805008 -15.449982,11.015991 -26.061981,-4.971001c-5.911011,0.269997 -16.119019,13.971001 -19.479004,22.165001c-1.744995,8.195007 -3.222992,13.298996 -2.013,18.807007c0.535004,6.181 1.477997,14.372986 2.954987,23.64299c3.895996,14.912003 1.881012,22.835007 -0.270996,34.656998c-2.416992,6.583008 -19.208984,24.582001 -20.686981,39.628998c-0.271027,21.09201 -3.358002,38.553986 -4.836029,59.105011c-0.807983,11.690002 -4.299988,36.674988 -4.029999,46.884979c2.417999,4.836029 6.313019,4.166016 7.52301,6.31601c0.537018,2.011017 0,2.011017 0,3.761017c-9.807007,6.850983 -22.703003,2.014984 -24.987,-1.479004c-2.148987,-4.029999 -0.132996,-11.552002 0,-13.972015c0.402008,-4.700989 1.074005,-10.207001 -0.268005,-11.416992c-1.209991,-1.345001 -2.419006,-0.938995 -3.628998,-3.493988c-0.268005,-4.162018 1.881012,-8.597015 2.016998,-14.238007c0.671997,-10.881012 0.269012,-22.166016 0.671997,-30.092987c-0.134979,-2.016022 1.208008,-6.716034 -0.671997,-8.731018c-5.373993,1.480011 -11.016998,47.151001 -10.209991,63.407013c0.132996,1.879974 -3.627991,27.002991 0.940002,36.134979c3.895996,4.300018 8.462982,6.315002 8.194,6.985992c1.880005,0.805023 1.074982,1.749023 0.134003,3.629028c-5.910004,4.29599 -24.046021,4.700989 -25.65799,-3.359009c-1.343018,-10.747009 2.15097,-18.671997 1.343964,-25.522003c-0.670959,-7.928009 -3.492981,-24.049011 -4.700989,-28.213013c6.179016,-10.610992 -1.073975,-43.255005 -1.344971,-55.076996c-1.746033,-9.807007 -1.746033,-25.927979 -9.134033,-32.508972c-11.148987,0.539001 -23.507965,-4.701019 -34.658997,-4.029999c-4.432983,-4.971024 -17.464996,-7.387024 -23.507996,-10.208023c-8.060974,-3.628998 -18.001984,-14.645996 -26.731995,-16.255997c-0.537994,0.134995 -1.210007,0 -1.748001,0c1.210007,4.029999 -0.539001,15.985992 -1.610992,18.942001c-1.748001,8.865005 -3.627014,22.16301 -14.374008,34.524002c-5.373993,8.195007 -5.106003,7.119995 -9.268997,11.820984c-15.449005,10.746033 -15.852005,22.032013 -14.779007,27.538025c1.345016,5.909973 4.568008,19.881989 11.688004,21.896973c11.014999,-2.419983 16.656998,6.312012 19.210007,9.536011c-4.298004,2.149994 -4.971008,2.015991 -9.404007,2.419006c-2.955002,0.401001 -11.956009,0 -15.046005,-0.134003c-1.746002,-2.015991 -2.014999,-2.015991 -4.700989,-2.955017c-2.417007,-1.345978 -3.627014,0.13501 -5.910995,-2.820984c-1.478012,-2.687988 -4.970016,-6.179993 -5.373016,-8.195007c-3.627991,-8.730988 -4.970993,-10.477997 -7.253983,-20.151001c-2.015015,-7.386993 -6.180008,-14.237 -3.896011,-20.687988c1.207993,-3.490021 14.371994,-9.401001 17.194,-19.34201c2.283005,-9.671997 1.207993,-27.674011 -4.83699,-40.435989c-5.641998,3.895996 -14.238007,17.866989 -18.268005,23.238998c-4.567993,9.270996 -10.479004,13.570007 -20.554001,21.22699c-6.313004,3.896027 -14.641998,15.047028 -21.358002,20.553009c-3.089996,1.744995 -18.673996,18.941986 -20.957001,22.166992c-3.358002,4.700012 -6.045998,29.95401 -1.074997,42.179993c1.074997,3.090027 5.777,4.432007 7.522995,6.446014c0.135002,1.345001 0.135002,2.688995 0.268005,4.165985c-6.716003,4.435028 -19.613007,4.029022 -25.121002,-1.880981c-2.417,-4.834991 0.671997,-13.029999 0.807999,-27.269012c-1.610001,-14.511017 -2.415001,-33.319 -0.534996,-35.063995z" stroke-miterlimit="2.4142" stroke-linejoin="round" stroke-width="1.944" stroke="#000000" fill="#111104" clip-rule="evenodd" fill-rule="evenodd"/>
      <path d="m414.05899,79.116997c-0.269012,3.896004 -3.356995,8.463005 -0.536987,11.284004c2.553986,5.508003 9.671997,7.120995 13.701996,14.509003c0.673004,3.492996 9.000977,6.985992 12.761993,12.358994c1.880005,2.014999 6.312988,7.253006 8.061005,7.253006c0.673004,3.224998 5.238007,5.23999 5.10498,1.746994c10.746002,5.508011 19.747009,-4.969994 27.806,-10.075996c-1.609985,5.239998 -8.462982,11.554001 -10.879974,12.762001c-11.284027,6.447998 -18.808014,5.104996 -25.256012,-4.971001c-4.56601,0.671997 -11.552002,8.060997 -16.119995,15.045998c-4.971008,1.208008 -3.223999,-1.343002 -3.223999,-2.150009c2.419006,-3.223999 10.746979,-8.194 8.731995,-13.298988c-4.031006,0 -0.402008,-1.208 -2.149994,-1.075005c-2.686005,2.285004 -9.807007,11.016006 -11.553009,11.149994c-0.67099,-0.806992 4.971008,-10.342987 7.255005,-13.700989c-5.911011,-1.612 -12.895996,-4.029999 -19.747009,-13.835999c-2.553986,-3.090004 -5.643982,-10.210999 2.819,-10.479004c-0.402008,-0.806999 -1.477997,-2.014999 -5.372986,-2.284996c-1.744995,-0.132004 -3.089996,-3.625999 -4.299011,-0.132004c-0.938995,3.625 0.537994,5.640999 2.149017,8.058998c2.148987,6.850998 -2.149017,9.403999 -0.671021,14.777c-1.612,8.866005 -3.492981,17.330009 -5.372986,26.732994c-1.345001,3.762009 -1.612,4.300003 -2.554016,0.53801c-0.938995,-6.582001 -10.744995,-16.254005 -7.252991,-26.733002c0.940002,-5.640999 5.238007,-6.447998 8.059998,-8.731995c3.356995,-2.015007 2.687988,-6.448006 -1.075012,-4.835007c0,-1.477997 1.478027,-5.104996 1.345001,-6.583c1.477997,-4.029999 5.372009,-11.687004 6.986023,-15.851997c0.401978,-0.669998 0.938995,-1.478004 1.47699,-2.148003c-0.269989,-0.404999 -0.536987,-0.807999 -0.94101,-1.075996c-2.552002,0.132996 -6.044006,13.836998 -8.597992,15.044998c-15.312988,10.748001 -28.345001,26.330002 -33.717987,47.419998c1.073975,4.165009 -2.016022,5.776993 0.806976,11.417999c-3.088989,-3.089996 -2.821991,-8.462997 -3.491974,-9.134003c-1.345001,-2.687988 -2.41803,-1.747986 -3.091003,0.806c-1.209991,6.716003 7.388977,15.71701 9.671997,19.612c0,1.074997 2.416992,2.822006 3.089996,7.52301c-2.553009,0.134995 -8.061005,-3.896011 -10.075012,-7.121002c-2.955994,-6.580994 -3.357971,-9.401001 -5.911011,-15.716995c0,-4.030014 -3.358002,-5.373001 -6.715973,-5.104004c-4.701019,0.268005 -8.062012,10.477005 -15.98703,10.880997c-1.07196,-0.671997 -5.640961,-3.089996 -5.505981,-1.477997c0.669983,6.582001 4.164001,12.358994 6.580994,15.850006c-3.356995,0.134995 -5.911011,-4.836014 -6.984985,-6.851013c-0.940002,-2.016006 -5.104004,-7.520996 -8.059021,-7.925995c-8.598999,1.074997 -25.120972,12.494003 -33.583984,12.090988c-4.970001,-6.312988 -16.791992,-6.715988 -23.509003,-3.626984c-14.104996,4.029999 -44.466003,-5.776016 -58.302002,-0.806015c-0.669998,-0.671997 1.478012,-2.149994 0.940002,-2.955994c15.313995,-0.805008 44.871002,-5.372986 63.27298,-1.074997c19.077026,2.417999 81.407043,-20.957001 87.990021,-21.089996c6.181,-9.806007 48.360016,-58.302002 56.286987,-62.735001c-1.477997,-3.627014 -1.880981,-8.733002 1.210022,-12.224003l-0.402008,0.670002c-0.135986,2.686996 -0.404999,2.82 2.011993,4.702995c1.345001,-0.269997 1.612,12.896004 6.181,17.194c2.419006,3.090004 3.628998,4.568001 6.046021,6.716003c-5.51001,-1.875 -9.002991,-9.532005 -9.407013,-10.339005m-237.639999,60.316994c0.27002,0.940002 0.94101,1.210007 1.345016,2.28302c2.416992,9.402985 7.388,13.569 11.013992,19.881989c0.13501,2.014999 -1.072998,0.807999 -0.940002,2.955994c-5.103989,0.269012 -11.957001,17.194 -13.434006,21.359009c-0.669983,4.166 -3.490982,4.565994 -5.910995,5.776001c-10.477005,6.985992 -11.821991,21.492996 -8.328995,22.834991c7.121002,13.434006 -2.417999,1.74501 -8.464005,2.688004c1.076004,-4.703003 3.360001,-11.151001 5.643005,-14.912003c2.955994,-8.865997 13.434006,-10.880997 13.701996,-18.26799c3.089996,-7.791 9.403,-15.314011 15.716995,-21.091995c-3.488983,-8.731018 -12.625,-14.506012 -10.343002,-23.507019m-26.597,93.763016c3.762009,23.375992 -12.761993,52.391006 -21.895988,70.528c-6.986,11.416992 -14.509003,20.416992 -22.032005,19.612c-2.282997,-0.13501 -2.417999,5.376007 -2.282997,7.390991c0.805,2.416016 2.820999,3.221008 3.625999,4.029022c1.074997,1.610992 -1.611,0.266998 -1.611,2.013c-0.402,5.509979 1.343002,16.121002 -0.806999,16.790985c-1.879997,1.209991 -1.477997,21.89801 -1.746002,29.018982c-0.671997,-0.269989 0.135002,-0.939972 -0.402,-1.610992c-2.284996,-4.971008 1.478004,-21.360992 0.670006,-26.867004c-1.880005,-17.867004 -2.148003,-34.255005 -0.133003,-33.987976c23.776001,-7.791016 33.179008,-44.597015 44.598,-73.345016c0.403992,-1.345993 1.748001,-11.151993 2.015991,-13.571991m-31.83699,103.975998c0.806,-2.015015 1.208,-5.640991 2.282997,-6.985016c13.702003,-15.985992 27.271004,-29.013977 41.644997,-43.255005c8.596008,-4.835999 15.852005,-10.610962 20.418015,-20.417999c1.074997,-1.479004 14.238998,-20.016983 19.209,-22.972977c11.686981,20.418991 11.016983,50.646011 -11.283005,60.317001c-2.283005,5.776001 6.044998,26.462982 9.806,34.389008c3.895996,-4.834991 5.104996,-8.865021 5.104996,-10.47702c2.14801,-3.224976 1.610001,-4.834991 3.087997,-6.044983c-0.26799,-10.746002 7.255997,-20.017029 16.389008,-25.257996c4.432999,-5.236023 8.195999,-10.207001 9.806,-14.103027c9.672989,-9.539978 15.04599,-37.883987 14.776001,-52.124985l3.360992,0.809006c6.716019,0.940002 21.626999,14.908005 25.387985,15.582001c7.52301,3.222 18.137024,4.701004 24.315033,10.207977c9,-0.67099 27.672974,6.315002 34.255981,5.105042c5.238007,5.509979 8.731018,12.225983 10.882019,31.566986c1.34198,15.182983 4.970978,40.570007 2.416992,53.736969c8.328979,9.13501 -3.225006,-129.231979 -0.808014,-76.168976c-4.296997,-3.091003 -4.699982,-8.730988 -8.192993,-8.865997c-1.074005,0.536011 -2.417999,1.074982 -4.298004,-0.806c-0.13501,-5.240021 4.701019,-7.525009 5.372986,-9.671005c1.612,-2.149994 2.687012,-6.985992 0.537018,-9.270996c-1.612,-2.150009 -8.195007,-7.791 -8.462982,-16.121002c-1.074036,10.880005 -11.687012,-3.492996 -6.851013,6.449005c12.895996,15.446991 5.776001,26.328995 -2.286011,22.028c-40.835999,-1.340012 -51.583008,-29.820007 -64.479004,-29.283005c1.478027,1.477997 2.955017,3.625 3.761017,5.373993c-17.597992,-4.703995 -54.942017,-4.165985 -70.524017,16.388c-18.404999,10.345016 -13.030991,25.387985 -31.300995,35.598984c-14.238998,8.061035 -23.507996,28.343018 -39.493996,37.345032c-4.028999,2.422974 -5.775002,13.838989 -4.834999,16.928986m270.417007,-102.361008c-2.015991,3.089996 -5.507996,8.462006 -7.792999,12.222c-4.162994,18.807983 -2.28299,30.628998 -3.625,49.706024c2.015015,2.685974 0.134003,6.444977 0.670013,8.72998c-0.268005,2.283997 -0.268005,8.865997 -0.268005,12.091003h1.744995c-0.670013,-7.520996 0.269989,-27.808014 1.345001,-26.328003c0.402008,1.205994 1.477997,-0.134979 1.477997,2.145996c-0.135986,8.196991 -2.285004,27.139008 0.67099,27.809998c1.612,-1.747009 3.492004,-5.506989 2.149017,-9.268005c-2.552002,-1.880005 -1.074005,-4.56897 -0.402008,-6.314972c0.670013,0 1.477997,1.610992 2.553009,-1.210022c0.536987,-3.76001 -0.537994,-13.970978 -0.808014,-16.520996c1.209991,-1.746002 2.821991,0.403992 2.554016,1.074005c-0.807007,2.685974 0.268982,6.04599 0.536987,8.326996c0.804993,0.944 2.820007,1.074005 4.165009,0.809998c0.132996,1.074005 3.358002,-1.47998 3.492981,-0.404999c3.76001,-10.610992 1.207001,-24.178009 8.460999,-33.854004c0.672028,-14.912003 23.51001,-39.761993 20.823029,-41.373993c-4.299011,11.285004 -20.823029,21.625992 -22.434021,26.061996c-4.43399,1.746002 -7.52298,9.402023 -15.313995,10.210983c6.85199,-3.224976 6.985016,-5.914978 8.194,-8.734985c-1.075012,-2.686005 -6.716003,2.820007 -8.598999,2.419006c-1.072998,-2.150009 1.882996,-5.105011 4.434998,-6.315002c2.552002,-1.207001 10.612,-12.087006 10.345001,-15.177994c-2.553986,0.134995 -6.718994,2.550995 -8.330994,4.565994c-2.551025,0.268997 -5.238007,-0.671005 -6.044006,-0.671005" fill="#111104" clip-rule="evenodd" fill-rule="evenodd"/>
      <path d="m403.178986,77.639c-2.553986,0.270004 -6.181,12.895996 -8.464996,14.643997c-18.402985,13.431999 -30.225006,31.434006 -33.717987,47.688011c0.401978,8.328995 -2.282013,4.164993 0.671997,11.283997c-1.880005,-2.014999 -2.95401,-6.045013 -3.089996,-9.134003c-2.016022,-2.285004 -1.612,-2.285004 -3.358002,0.132996c-0.537018,8.32901 4.164001,11.552994 9.537994,20.283997c1.746002,2.688004 2.419006,3.089996 2.955994,7.121002c2.014008,4.968994 6.716003,9.404007 11.015015,11.820007c-1.745026,-7.791 -2.016022,-22.701004 8.597992,-14.910004c4.298004,-5.237991 -1.343018,-9.67099 6.583008,-15.582001c1.745972,-2.015991 0.133972,-5.643997 0.804993,-7.65799c-2.149017,-9.269012 -10.208008,-15.044006 -7.388,-26.599007c1.477997,-5.373009 4.43399,-5.775002 8.194,-8.731003c3.492004,-2.956001 2.283997,-6.18 -1.075012,-5.240005c0.403992,-1.609993 1.075012,-4.163994 1.477997,-6.177994c2.015015,-5.508003 4.567017,-10.344002 6.718018,-15.851997c1.342987,-2.283005 0.67099,-1.209 1.744995,-2.283005c-0.537994,-0.536995 -0.402985,-0.806999 -1.208008,-0.806999m-74.153992,75.364006c-3.626984,-1.882004 -2.28299,-2.014999 -5.238007,-1.882004c0.402008,7.925995 7.924988,22.703003 17.598022,24.046997c29.418976,19.343002 24.984985,34.522003 30.763977,62.598999c10.746002,-3.224991 21.627014,-25.524002 16.925018,-38.149994c-6.985016,-18.406998 -20.41803,-14.777008 -28.076019,-27.539001c-3.089996,-8.463013 -6.04599,-17.059998 -9.13501,-25.52301c0.134003,-3.895996 -5.238983,-4.567993 -6.179993,-4.432983c-5.776001,-0.136017 -7.388977,10.475983 -16.65799,10.880997m-135.005997,13.163986c0.133011,-2.819992 1.879013,-4.703003 6.716003,-6.04599c15.985001,-4.701004 42.852997,5.373993 58.301987,0.671997c5.911011,-2.686996 19.075012,-2.014999 22.702026,3.896011c5.774994,10.878998 -6.583008,38.28299 -12.359009,27.67099c-19.209,-29.552002 -27.540009,-28.07399 -59.108017,-24.716003c5.373016,-1.612 -22.565994,42.313995 -16.252991,-1.477005m214.935989,-105.318993c-0.671997,2.956001 0.270996,3.224998 2.417999,4.703003c1.747009,1.477997 1.074005,11.283997 6.045013,17.328995c-2.149017,-6.582993 -5.775024,-21.762997 -2.015015,-21.628998c3.627014,1.075001 1.209991,8.598 3.089996,11.015999c3.08902,-8.194 4.835999,-7.252998 9.13501,-7.522995c1.880005,0.134995 3.895996,-4.433002 3.225006,-6.448002c-1.477997,0.939999 -1.477997,-1.611 -4.434021,-0.806004c-0.537994,0.806004 -0.537994,2.015003 -1.612,2.284004c-2.281982,0.806999 -5.237976,-2.418003 -8.327972,-2.551003c-2.957001,-0.137001 -6.313995,2.549999 -7.524017,3.625" fill="#111104" clip-rule="evenodd" fill-rule="evenodd"/>
      <path d="m181.123001,137.418991c-3.090012,-1.342987 -4.166,1.612015 -3.358002,4.029999c2.283005,9.94101 6.043991,11.284012 11.013992,20.285019c3.360016,-3.493011 6.718018,-4.298004 12.089005,-5.239014c-8.059006,-4.029999 -11.68399,-17.598999 -19.744995,-19.076004m306.551987,-38.284988c1.342987,2.282997 4.56601,1.744995 6.582001,0.267998c0,-0.135002 0,0.538002 0,0.939995c-1.208008,1.478004 -5.372986,2.016006 -6.582001,-0.26799c0,-0.270004 0,-0.672005 0,-0.940002m-33.85199,30.223999c2.283997,7.389999 7.522003,2.552002 11.554016,-0.94101c-4.167023,1.346008 -8.196014,4.569 -11.554016,0.94101m32.105011,-6.581001c4.703003,-3.763 6.718994,-8.329002 9.001007,-2.285004c0.537994,-2.147995 1.343994,-3.895996 -0.268005,-5.103996c-3.492004,-0.940002 -8.059998,2.820999 -8.733002,7.389m-72.137024,-43.794998c4.835999,8.999992 9.135986,11.956001 17.731995,11.552994c1.612,-0.536995 2.417023,-1.476997 2.417023,-3.357994c1.477997,-3.763 -2.14801,-12.091003 0.270996,-13.433998c10.074982,-4.568001 12.760986,-14.509003 17.059967,-15.180004c6.85202,-0.403 15.719025,-5.373001 19.479034,6.045002c0.940002,2.954994 4.970001,4.835999 6.850983,6.850998c0.13501,3.625 -0.938995,10.611 0.13501,12.492004c2.417999,0.806992 5.911011,6.314995 8.192993,7.657997c-0.804993,1.745003 -0.402008,1.208 0.134979,3.223999c1.478027,-0.133003 2.016022,-2.687004 3.358002,-2.149002c1.210022,0.267998 2.016022,0.670006 3.492004,1.879997c-3.222992,1.208 -4.970978,5.238007 -6.714996,3.493004c-0.940002,-1.075005 -2.687988,-3.090004 -4.43399,-2.956001c-0.403992,1.208 2.14801,3.090004 1.072998,5.238007c-7.253998,0.402992 -3.088013,4.166 0.270996,0.402992c2.684998,-0.132996 4.699005,0.134003 6.716003,1.209007c1.881989,0.671997 2.552002,1.074997 2.821991,2.956001c-1.612,7.791 -9.673981,15.850998 -17.329987,8.327995c12.490997,-8.865997 1.477997,-6.850998 0,-2.283005c-1.477997,1.610001 -2.688019,-3.357994 -4.971008,-2.821991c-2.149994,0.134995 -2.687988,1.477997 -4.029999,3.358994c1.744995,2.82 0.402008,4.701004 -1.747009,0.133003c-0.938995,-1.746002 -0.804993,4.702995 -2.14798,4.568001c-2.553009,0.536995 -6.718018,-1.478004 -6.447998,-4.163002c-0.13501,-3.224998 6.04599,2.013 9.269989,-3.627998c4.028992,-6.583 -9.539001,-5.238007 3.627014,-13.568001c-3.89502,-9.135002 4.567993,-4.164001 6.447998,-8.731003c-2.015015,-7.389 1.881012,-11.418999 -5.104004,-15.314003c-9.404022,0.538002 -10.882019,2.150009 -17.597992,10.208008c-2.286011,-0.805 -1.345001,-1.746002 -0.671997,-4.163002c1.47699,-4.834999 10.207977,-10.746002 13.700989,-11.015999c-0.402008,-6.178001 -3.493011,-2.956001 -6.178986,-2.686001c-3.226013,4.298 -10.614014,9.805996 -12.091003,15.044003c-0.806,3.224998 -1.343018,7.388992 -2.955017,9.538994c-2.955994,-6.045998 2.822021,-10.478996 2.552002,-15.716995c-6.178009,-3.224998 -17.596985,6.984001 -3.895996,4.163002c1.343994,1.342995 -4.835999,6.582993 -7.119995,14.105995c-1.343018,4.432999 -5.104004,1.477997 -5.776001,5.506004c-1.207001,5.374992 11.419006,17.598999 9.673004,21.225998c-2.822021,-4.164001 -10.880005,-7.792 -12.628021,-11.821999c-4.029999,-7.791 -11.686981,-10.074005 -13.701996,-14.777c-2.820984,-3.488998 0.536011,-6.982002 0.268005,-11.415001m27.27002,-25.253002c-5.644012,1.610001 -9.671997,19.209003 -8.731995,25.387997c0.537994,3.090004 1.074982,7.926003 -0.13501,9.673004c-1.34201,1.342995 -5.104004,1.745995 -7.388,0.403c-3.492004,-3.762001 -5.509003,-8.060997 -4.299011,-14.776001c1.344025,-2.284996 2.419006,-3.225998 4.164001,-1.209999c0.13501,3.492996 4.165009,17.061996 5.777008,6.718002c-0.94101,-4.971001 2.955994,-25.794003 10.613007,-26.196003m-30.22699,42.044994c-8.72998,0.404007 -5.238007,6.853004 -2.955017,10.479004c9.269012,11.554001 13.032013,11.284004 19.883026,13.704002c-1.210022,1.746002 -7.926025,12.761002 -7.255005,13.567001c0.940979,0.537994 9.536987,-9.134003 11.552979,-11.015999c1.748016,-0.133003 -1.880981,1.074997 2.150024,1.074997c2.014984,5.508003 -8.194,11.418007 -8.867004,13.433998c-0.402008,3.358002 0.940002,2.955994 3.091003,2.820999c-2.417999,3.895004 -3.091003,4.970001 -4.703003,8.598007c-0.938995,4.298004 -3.223999,12.626999 -2.014984,18.134995c0.938995,7.119003 2.416992,16.656006 3.491974,23.240997c-0.804993,0.134003 -0.940002,6.311996 -0.804993,2.820007c0.402008,-3.359009 -1.209991,-11.957001 -2.687988,-14.241013c-3.089996,16.792007 8.462982,19.882004 2.687988,45.002014c-6.583984,13.569992 -16.121002,17.060989 -22.031982,25.121994c-5.104004,3.089996 -6.447998,9.402023 -13.970001,10.076004c4.162994,-2.150024 6.582001,-3.360001 8.05899,-8.600006c-0.402008,-2.820999 -6.984009,2.820007 -8.463013,2.419006c0.13501,0 -1.610992,-2.686005 4.434998,-6.449997c4.028015,-2.55101 10.074005,-11.687012 10.345001,-14.777008c-2.823975,-0.265991 -5.91098,2.014999 -8.464996,4.300003c-1.746979,0 -4.835999,-0.404007 -5.910004,-0.669998c-0.537994,-4.300003 6.582001,-6.449005 6.582001,-13.703003c-0.671997,-3.761993 2.015015,-7.255005 -0.537994,-10.343994c-0.940002,-0.940002 -2.686005,-1.882004 -1.880981,-4.028c-5.238007,-15.31601 -9.806,-22.302002 -10.478027,-34.794006c0.269012,-7.252991 2.015015,-1.343002 5.776001,-3.358002c3.761017,-2.553009 3.358002,-6.850998 3.761017,-11.686996c0.940002,-4.166 3.225983,0.401993 4.031006,-5.374008c0.940002,-7.121002 6.850983,-27.404991 6.716003,-35.598999c-0.537018,-7.120995 2.954987,-7.792999 0.940002,-14.643997c-2.821014,-3.625999 -2.687012,-5.640999 -2.149017,-8.192993c1.075989,-3.226006 2.419006,0 4.43399,0.266998c1.612,0.269997 4.162994,0.404999 5.238007,2.417992m-31.568024,221.652c1.342987,8.596985 1.342987,20.957001 -0.670013,32.108002c-0.134979,0.940002 1.609009,2.552002 4.700012,3.895996c4.566986,0.670013 0.940002,6.580017 2.954987,12.490997c3.493011,-0.269989 6.448029,0.670013 9.002014,-0.53598c0,-6.180023 2.552002,-25.65802 0.804993,-18.406006c-5.104004,-0.13501 -2.552979,-6.985016 -2.552979,-13.835999c0.403992,-2.821014 -2.820007,1.345001 -4.298004,-0.807007c-1.613007,-2.684998 -1.210022,-7.253998 1.209991,-10.47699c1.071991,-2.554016 -1.881989,-2.554016 -1.209991,-5.104004c2.014984,-8.061005 4.701996,-10.075989 4.164978,-18.942017c-1.612,0.405029 -3.089996,0.535034 -4.299988,-0.804993c-0.134003,-3.090973 -1.075012,-5.105011 -0.402008,-8.195984c-0.537994,-1.745026 -1.479004,-1.745026 -2.686981,-0.938995c0.940002,4.970001 1.207977,10.880981 0.940002,16.520966c-0.808014,1.750031 -1.210022,2.017029 -2.553009,1.210022c-1.343994,2.419983 -1.747009,4.835999 0.268005,6.181c1.477997,3.225006 -0.268005,7.654999 -2.015015,9.536987c-2.820984,-0.270996 -1.074005,-19.882996 -0.67099,-28.073975c-0.136017,-2.285004 -0.808014,-0.674011 -1.075012,-2.149994c-1.745972,-2.555023 -2.550995,20.417969 -1.610992,26.327972m-45.540009,-91.078995c0.27002,6.179993 4.971039,12.089996 8.598022,16.121002c2.149994,2.285004 1.209991,7.520996 -0.402008,9.270996c-1.612,2.686005 -5.643005,5.641006 -5.507996,9.671005c0.938995,0.940002 2.148987,1.881012 4.433014,0.806c3.358978,0 4.298981,6.445984 8.192963,8.865997c1.883026,-4.031006 -0.401978,-6.181 -1.477966,-10.346008c-1.207001,-4.835999 3.895996,-9.401993 2.687988,-14.641998c-1.612,-9.67099 -8.463013,-14.371994 -9,-23.238998c-0.403992,-6.179001 -6.313995,-4.43399 -7.524017,3.492004m-140.646973,21.761993c16.388,-21.897003 53.061996,-22.029999 71.332001,-17.193008c-15.853012,-27.269989 -34.123016,4.297012 -51.721008,-15.315002c-2.686005,-4.030975 -17.061005,16.390015 -19.610992,32.508011m47.150986,13.031021c0.268005,5.23999 -2.955994,9.53598 -5.373993,12.761993c0.132996,2.149994 1.072998,3.089996 1.072998,5.105011c-7.520996,13.701965 -23.104996,24.717987 -28.479004,28.612976c-1.074997,1.610016 -11.686996,-0.403992 -8.328995,6.580994c1.746002,1.345001 5.373993,0.809021 6.313995,3.895996c0.270004,4.969025 -2.016006,3.763 -0.403,9.27002c1.478012,-2.149017 3.090012,-4.700012 4.166,-5.507019c2.685989,12.088013 5.104004,20.688019 12.088989,24.718018c-4.568008,1.071991 -5.507996,5.237 -7.791,8.997986c-1.210007,-1.341003 -2.552994,-2.145996 -3.763,-3.48999c-5.505997,-0.807007 -7.520981,-4.031006 -10.343979,-9.270996c-0.133011,-3.087006 -1.477997,-4.56601 1.074982,-4.834991c0.13501,2.954987 -0.939987,-25.390015 -7.252991,-22.434021c-2.417999,-0.67099 -1.746002,-6.984985 0.671997,-8.865997c8.32901,-5.77597 13.970001,-7.389984 17.597015,-19.076996c2.015991,-6.579987 5.507996,-0.938995 9.269989,-3.625c4.567001,-1.881012 6.850998,-6.450012 4.970001,-10.47699c-4.029999,0.399994 -14.776993,-8.330994 0.940002,-8.466003c0.671997,-3.355011 6.447998,-4.565002 2.955002,-10.477005c9.002991,-14.509995 7.792999,0.942001 10.61499,6.582016m-136.350998,58.436981c15.449005,-1.209991 26.731995,-19.345978 30.091003,-34.123016c-8.329002,15.720032 -16.656998,30.762024 -30.091003,34.123016m64.748993,-128.156998c-0.669983,6.850998 4.031006,9.136002 4.031006,11.151001c-1.210007,1.610001 -3.760986,3.089996 -4.970993,3.490997c-3.090012,0.940002 -6.313004,6.718002 -7.388,8.598007c-0.940002,-0.671997 -1.478012,-2.014999 -1.746002,-2.956009c-0.942001,-7.251999 4.701996,-17.057999 10.07399,-20.283997m-40.568985,112.035995c-5.911003,9.404999 -13.567009,20.820984 -22.165009,19.881989c-2.552994,0.27002 -2.417999,6.315002 -2.282997,7.256012c0.669998,2.148987 1.879997,2.820007 3.625999,4.029999c1.074997,1.880005 -1.611,0.265991 -1.611,2.145996c-0.402,5.51001 1.478004,17.061005 -0.806999,16.661011c-1.879997,1.880005 -1.072998,24.71698 -1.611,28.878998c2.685997,1.074982 6.984001,2.954987 7.655998,-0.132019c0.940002,3.490997 4.568001,3.222015 7.121002,3.087006c3.625999,-0.265991 4.029999,-2.954987 3.895996,-5.10199c0.135002,4.161011 3.493004,3.626007 4.835999,1.609985c0.268005,-3.089996 -2.687996,-3.359985 -5.642998,-5.641998c-2.014,-0.938995 -3.490997,-2.014984 -4.028999,-3.628998c-4.702995,-16.117981 -0.940002,-31.968994 0.268005,-44.600983c-2.149002,0.810974 -4.298004,5.510986 -6.583008,5.510986c0,0 -3.223,-2.015991 -2.282997,-4.700012c9.670998,-7.119965 15.448997,-12.224976 19.612007,-25.255981m316.494003,-247.443993c0.269012,3.896 -4.433014,8.060997 -6.984985,9.133995c0,0.942001 -0.538025,2.419006 0.536987,2.150002c3.493011,-1.879997 8.32901,-5.237999 9.807007,-8.730999c-0.94101,-0.940998 -2.553009,-2.552998 -3.359009,-2.552998m-4.567017,29.956001c-1.881012,5.373001 -2.955994,13.166 -0.67099,19.746994c2.417999,7.121002 9.403992,11.821007 8.730988,18.807007c0.402008,3.224998 5.509003,5.23999 5.105011,1.612c-1.882019,-3.896004 -3.360016,-6.851006 -2.150024,-9.671005c0.537018,-2.552994 3.223999,-2.149994 3.223999,-4.299995c-1.342987,-3.626007 -1.879974,-7.926003 -0.537994,-12.359001c-2.013977,-1.745003 -2.686005,-0.669998 -3.358002,2.149994c-1.073975,2.418007 0,6.986008 0.539001,10.344009c-4.031006,1.342995 -2.820984,-14.509003 -3.625977,-19.479004c-3.493011,0.134995 -2.420013,5.910995 -4.83902,6.447998c-1.609009,-3.223 -1.880005,-4.835999 -0.402008,-8.194c1.61203,-2.686996 1.075012,-7.791 -2.014984,-5.104996" fill="#111104" clip-rule="evenodd" fill-rule="evenodd"/>
      <path d="m381.145996,379.623993c3.493011,1.480011 11.286011,3.091003 13.166016,2.015991c-0.402008,-6.313995 -5.104004,-9.53598 3.625977,-0.806c2.150024,1.209991 2.688019,-1.345001 4.83902,-1.880005c-2.016998,-3.358978 -5.106018,-6.315002 -8.330994,-8.329987c-6.582001,-1.880981 -11.552002,-0.402008 -13.300018,9m-27.537994,26.063019c3.493011,1.609985 10.613007,3.626007 12.628998,2.550995c-0.269989,-6.181 -5.105011,-9.536987 3.626007,-0.807007c2.014984,1.345001 3.225006,-0.669983 5.372986,-1.208984c-1.880981,-3.356018 -3.222992,-6.85202 -8.865997,-9.001007c-6.449005,-1.880005 -11.014984,-0.535004 -12.761993,8.466003m-248.653999,-22.568024c3.492996,1.610992 10.881996,2.955994 12.761993,1.881012c-0.267998,-6.315002 -5.103996,-9.675018 3.627007,-0.809998c2.149994,1.209991 3.357994,-0.805023 5.507996,-1.34201c-0.940002,-4.569 -9.000999,-10.075012 -15.046997,-9.535004c-4.298004,2.012024 -6.044998,5.911011 -6.849998,9.806m112.168999,-25.927979c3.492996,0.269989 11.552994,0 12.628006,0.13501c-3.358002,-9.136017 0.134995,-6.313995 5.237991,-0.539001c2.150009,1.209991 3.089996,0 4.837997,-0.671021c-3.897995,-5.373993 -7.65799,-9.536987 -16.256989,-9.404999c-4.16301,2.148987 -5.641006,6.584015 -6.447006,10.480011" fill="#111104" clip-rule="evenodd" fill-rule="evenodd"/>
      <path fill="#111104" d="m462.018005,80.729004c-1.747009,0 -2.821991,3.222992 -4.971008,3.222992c0.134003,1.747009 0.940002,2.016006 1.881012,3.090004c2.282013,0.672005 4.835999,-0.402 4.835999,-4.297997c-0.539001,-1.075005 -1.209015,-1.477005 -1.746002,-2.014999m35.061981,18.136002c-1.881989,-2.821007 -6.315002,-6.717003 -11.286011,-6.986008c-1.342987,1.210007 -2.819977,2.150002 -4.298981,3.359001c1.479004,3.761002 9.941986,7.520996 13.031982,9.268997c0.13501,-1.880997 2.955017,-3.762001 2.553009,-5.641991" clip-rule="evenodd" fill-rule="evenodd"/>
      <path d="m408.820007,60.310001c-0.536987,3.224998 0.404999,4.164997 2.687988,5.240002c1.34201,2.82 0.939026,10.207993 5.641022,17.059998c2.285004,2.688004 3.764008,4.432999 5.912994,6.718002c3.626007,0.940002 7.252991,1.343002 9.268005,-0.538002c0.940979,-1.209 0.403992,-5.642998 0.134003,-9.673004c-0.402008,-3.895996 0,-7.790993 1.074982,-11.956993c1.345001,-5.103004 4.029999,-12.492004 7.925995,-14.239002" stroke-miterlimit="2.4142" stroke-width="0.216" stroke="#000000" fill="#111104" clip-rule="evenodd" fill-rule="evenodd"/>
      <path d="m201.406006,243.944c14.643997,-9.537003 34.390991,-12.761993 48.22699,-11.953003" stroke-miterlimit="2.4142" stroke-linejoin="round" stroke-linecap="round" stroke-width="0.72" stroke="#000000" fill="#111104" clip-rule="evenodd" fill-rule="evenodd"/>
     </g>
    </g>
   </g>
  </switch>
 </g>
</svg>